<?xml version="1.0" encoding="iso-8859-1"?>
<!-- Generator: Adobe Illustrator 19.0.0, SVG Export Plug-In . SVG Version: 6.00 Build 0)  -->
<svg version="1.1" id="Capa_1" xmlns="http://www.w3.org/2000/svg" xmlns:xlink="http://www.w3.org/1999/xlink" x="0px" y="0px"
	 viewBox="0 0 508 508" style="enable-background:new 0 0 508 508;" xml:space="preserve">
<g>
	<g>
		<path d="M254,0C128.3,0,26.1,102.2,26.1,227.9c0,122.9,97.9,223.4,219.8,227.7V508l60.3-60.3l-60.3-60.3v52
			c-113-4.4-203.5-97.5-203.5-211.5c0-116.7,94.9-211.6,211.6-211.6s211.6,94.9,211.6,211.6h16.3C481.9,102.2,379.7,0,254,0z
			 M262.1,426.6l21,21l-21,21V426.6z"/>
	</g>
</g>
<g>
	<g>
		<path d="M131.9,105.8V350h244.2V105.8H131.9z M229.6,122.1L229.6,122.1h48.8v32.6h-48.8V122.1z M359.8,333.7H148.2V122.1h65.1
			v48.8h81.4v-48.8h65.1V333.7z"/>
	</g>
</g>
<g>
	<g>
		<polygon points="319.1,248.2 291.2,279.5 303.4,290.3 311,281.8 311,317.4 327.3,317.4 327.3,281.8 334.8,290.3 347,279.5 		"/>
	</g>
</g>
<g>
	<g>
		<polygon points="251.4,248.2 223.5,279.5 235.7,290.3 243.2,281.8 243.2,317.4 259.5,317.4 259.5,281.8 267.1,290.3 279.2,279.5 
					"/>
	</g>
</g>
<g>
</g>
<g>
</g>
<g>
</g>
<g>
</g>
<g>
</g>
<g>
</g>
<g>
</g>
<g>
</g>
<g>
</g>
<g>
</g>
<g>
</g>
<g>
</g>
<g>
</g>
<g>
</g>
<g>
</g>
</svg>
