<?xml version="1.0" encoding="iso-8859-1"?>
<!-- Generator: Adobe Illustrator 19.0.0, SVG Export Plug-In . SVG Version: 6.00 Build 0)  -->
<svg version="1.1" id="Layer_1" xmlns="http://www.w3.org/2000/svg" xmlns:xlink="http://www.w3.org/1999/xlink" x="0px" y="0px"
	 viewBox="0 0 512 512" style="enable-background:new 0 0 512 512;" xml:space="preserve">
<g>
	<g>
		<path d="M506.922,249.331l-29.541-17.153l-16.877-72.109c-4.493-19.193-21.397-32.597-41.107-32.597h-84.891v-13.467
			c0-5.633-4.567-10.199-10.199-10.199H10.199C4.567,103.806,0,108.372,0,114.005v243.111c0,5.633,4.567,10.199,10.199,10.199
			h32.779c4.74,23.293,25.38,40.877,50.051,40.877s45.312-17.584,50.052-40.877h206.476v0.001
			c4.74,23.293,25.38,40.877,50.051,40.877c24.671,0,45.312-17.584,50.052-40.877h52.142c5.632,0,10.199-4.566,10.199-10.199
			v-98.966C512,254.517,510.066,251.157,506.922,249.331z M93.029,387.796c-16.915,0-30.677-13.763-30.677-30.678
			s13.762-30.678,30.677-30.678c16.916,0,30.678,13.762,30.678,30.678S109.945,387.796,93.029,387.796z M314.109,310.344h-91.994
			c-5.632,0-10.199,4.566-10.199,10.199c0,5.633,4.567,10.199,10.199,10.199h91.994v16.176H143.081
			c-4.74-23.293-25.381-40.877-50.052-40.877c-24.671,0-45.311,17.583-50.051,40.877h-22.58v-52.75h293.711V310.344z
			 M314.109,137.672v136.098H20.398V124.205h293.711V137.672z M393.671,147.872h25.728c10.187-0.001,18.924,6.927,21.244,16.846
			l14.949,63.872h-61.92V147.872z M399.608,387.796c-16.228,0-29.546-12.669-30.602-28.635c0.135-0.66,0.205-1.343,0.205-2.043
			c0-0.7-0.071-1.383-0.205-2.043c1.056-15.966,14.374-28.635,30.602-28.635c16.916,0,30.678,13.762,30.678,30.678
			S416.524,387.796,399.608,387.796z M491.602,298.512h-19.403v-10.797h19.403V298.512z M491.602,267.317h-29.602
			c-5.632,0-10.199,4.566-10.199,10.199v31.195c0,5.633,4.567,10.199,10.199,10.199h29.602v28.008h-41.942
			c-4.74-23.293-25.381-40.877-50.052-40.877s-45.311,17.583-50.051,40.877h-15.05V147.871h38.766v90.918
			c0,5.633,4.567,10.199,10.199,10.199h82.235l25.894,15.037V267.317z"/>
	</g>
</g>
<g>
	<g>
		<path d="M187.693,310.344h-8.606c-5.632,0-10.199,4.566-10.199,10.199c0,5.633,4.566,10.199,10.199,10.199h8.606
			c5.632,0,10.199-4.566,10.199-10.199C197.892,314.91,193.325,310.344,187.693,310.344z"/>
	</g>
</g>
<g>
</g>
<g>
</g>
<g>
</g>
<g>
</g>
<g>
</g>
<g>
</g>
<g>
</g>
<g>
</g>
<g>
</g>
<g>
</g>
<g>
</g>
<g>
</g>
<g>
</g>
<g>
</g>
<g>
</g>
</svg>
